<svg width="24" height="24" viewBox="0 0 24 24" fill="none" xmlns="http://www.w3.org/2000/svg">
<g clip-path="url(#clip0_1855_135804)">
<mask id="mask0_1855_135804" style="mask-type:alpha" maskUnits="userSpaceOnUse" x="0" y="0" width="24" height="24">
<rect width="24" height="24" fill="#D9D9D9"/>
</mask>
<g mask="url(#mask0_1855_135804)">
<path d="M6 22C5.45 22 4.97933 21.8043 4.588 21.413C4.196 21.021 4 20.55 4 20V4C4 3.45 4.196 2.979 4.588 2.587C4.97933 2.19567 5.45 2 6 2H14L20 8V14H18V9H13V4H6V20H12V22H6Z" fill="#54DFFF"/>
</g>
<path d="M13.625 17.1H16.125V16.35H13.625V17.1ZM17 21.125H19.5V20.375H17V21.125ZM17 19.875H19.5V19.125H17V19.875ZM14.5 21.5H15.25V20.5H16.25V19.75H15.25V18.75H14.5V19.75H13.5V20.5H14.5V21.5ZM17.55 17.975L18.25 17.275L18.95 17.975L19.475 17.45L18.775 16.725L19.475 16.025L18.95 15.5L18.25 16.2L17.55 15.5L17.025 16.025L17.725 16.725L17.025 17.45L17.55 17.975ZM13 23C12.725 23 12.4895 22.9022 12.2935 22.7065C12.0978 22.5105 12 22.275 12 22V15C12 14.725 12.0978 14.4895 12.2935 14.2935C12.4895 14.0978 12.725 14 13 14H20C20.275 14 20.5105 14.0978 20.7065 14.2935C20.9022 14.4895 21 14.725 21 15V22C21 22.275 20.9022 22.5105 20.7065 22.7065C20.5105 22.9022 20.275 23 20 23H13ZM13 22H20V15H13V22Z" fill="#54DFFF"/>
</g>
<defs>
<clipPath id="clip0_1855_135804">
<rect width="24" height="24" fill="white"/>
</clipPath>
</defs>
</svg>
