<svg width="24" height="24" viewBox="0 0 24 24" fill="none" xmlns="http://www.w3.org/2000/svg">
<path d="M8.69922 14.9736H14.2992L14.2992 19.6578L8.69922 19.6578L8.69922 14.9736Z" stroke="#54DFFF"/>
<mask id="path-2-inside-1_1887_135407" fill="white">
<rect x="13.1992" y="9.47363" width="6.6" height="5.68421" rx="0.5"/>
</mask>
<rect x="13.1992" y="9.47363" width="6.6" height="5.68421" rx="0.5" stroke="#54DFFF" stroke-width="2" mask="url(#path-2-inside-1_1887_135407)"/>
<path d="M15.7484 11.673V9.82363H17.2484V11.673L16.7426 11.3463C16.594 11.2503 16.4029 11.2503 16.2543 11.3463L15.7484 11.673Z" stroke="#54DFFF" stroke-width="0.7"/>
<path d="M10.5492 16.673V14.8236H12.0492V16.673L11.5434 16.3463C11.3948 16.2503 11.2037 16.2503 11.0551 16.3463L10.5492 16.673Z" stroke="#54DFFF" stroke-width="0.7"/>
<path d="M4.13255 16.7368H7.19922V14.8421H4.13255V16.7368ZM4.13255 12.9473H11.4659V11.0526H4.13255V12.9473ZM4.13255 9.15784H11.4659V7.26311H4.13255V9.15784Z" fill="#54DFFF"/>
<path d="M2.66589 20.5263C2.26255 20.5263 1.91715 20.3409 1.62969 19.9702C1.34271 19.5988 1.19922 19.1526 1.19922 18.6315V5.36837C1.19922 4.84732 1.34271 4.40111 1.62969 4.02974C1.91715 3.659 2.26255 3.47363 2.66589 3.47363H12.9326C13.3359 3.47363 13.6813 3.659 13.9688 4.02974C14.2557 4.40111 14.3992 4.84732 14.3992 5.36837V8.47363H12.9326V5.36837H2.66589V18.6315H7.19922V20.5263H2.66589Z" fill="#54DFFF"/>
<mask id="path-6-inside-2_1887_135407" fill="white">
<rect x="16.1992" y="14.4736" width="6.6" height="5.68421" rx="0.5"/>
</mask>
<rect x="16.1992" y="14.4736" width="6.6" height="5.68421" rx="0.5" stroke="#54DFFF" stroke-width="2" mask="url(#path-6-inside-2_1887_135407)"/>
<path d="M18.7484 16.673V14.8236H20.2484V16.673L19.7426 16.3463C19.594 16.2503 19.4029 16.2503 19.2543 16.3463L18.7484 16.673Z" stroke="#54DFFF" stroke-width="0.7"/>
</svg>
