<svg width="18" height="19" viewBox="0 0 18 19" fill="none" xmlns="http://www.w3.org/2000/svg">
<g clip-path="url(#clip0_21_17)">
<path d="M0.00452666 3.29123C-0.484875 3.77165 -0.7409 4.34307 -0.74977 4.9294C-0.75849 5.50587 -0.526915 6.0263 -0.171777 6.41151C0.539747 7.1833 1.81486 7.47351 2.90486 6.67014L2.0149 5.46267C1.59972 5.76867 1.17543 5.65985 0.931064 5.39478C0.808255 5.26157 0.747759 5.10412 0.750059 4.95209C0.75221 4.8099 0.810297 4.60219 1.05532 4.36167L0.00452666 3.29123ZM2.90486 6.67014C3.47708 6.24839 3.7428 5.65588 3.74982 5.05439C3.75654 4.47898 3.52905 3.93277 3.19306 3.51777C2.85733 3.10311 2.3641 2.75996 1.77531 2.67063C1.15636 2.57673 0.526404 2.77894 0.00452666 3.29123L1.05532 4.36167C1.26786 4.15303 1.43451 4.13609 1.55031 4.15366C1.69627 4.17581 1.87595 4.27476 2.02725 4.46164C2.17829 4.6482 2.25196 4.86299 2.24993 5.03687C2.2482 5.18467 2.19527 5.32973 2.0149 5.46267L2.90486 6.67014Z" fill="#54DFFF"/>
<path d="M7.30531 -0.107205C6.81591 0.373212 6.55988 0.944637 6.55101 1.53096C6.54229 2.10744 6.77387 2.62786 7.129 3.01308C7.84053 3.78486 9.11564 4.07508 10.2056 3.2717L9.31568 2.06423C8.9005 2.37024 8.47622 2.26141 8.23185 1.99635C8.10904 1.86314 8.04854 1.70568 8.05084 1.55365C8.05299 1.41147 8.11108 1.20376 8.3561 0.963235L7.30531 -0.107205ZM10.2056 3.2717C10.7779 2.84995 11.0436 2.25744 11.0506 1.65595C11.0573 1.08054 10.8298 0.534328 10.4938 0.119335C10.1581 -0.295332 9.66489 -0.638475 9.07609 -0.727805C8.45714 -0.82171 7.82719 -0.619502 7.30531 -0.107205L8.3561 0.963235C8.56864 0.754594 8.73529 0.737655 8.85109 0.755224C8.99705 0.777369 9.17673 0.876323 9.32803 1.06321C9.47908 1.24976 9.55274 1.46456 9.55071 1.63843C9.54898 1.78623 9.49605 1.93129 9.31568 2.06423L10.2056 3.2717Z" fill="#54DFFF"/>
<path d="M0.00452666 11.7912C-0.484875 12.2716 -0.7409 12.8431 -0.74977 13.4294C-0.75849 14.0059 -0.526915 14.5263 -0.171777 14.9115C0.539747 15.6833 1.81486 15.9735 2.90486 15.1701L2.0149 13.9627C1.59972 14.2687 1.17543 14.1599 0.931064 13.8948C0.808255 13.7616 0.747759 13.6041 0.750059 13.4521C0.75221 13.3099 0.810297 13.1022 1.05532 12.8617L0.00452666 11.7912ZM2.90486 15.1701C3.47708 14.7484 3.7428 14.1559 3.74982 13.5544C3.75654 12.979 3.52905 12.4328 3.19306 12.0178C2.85733 11.6031 2.3641 11.26 1.77531 11.1706C1.15636 11.0767 0.526404 11.2789 0.00452666 11.7912L1.05532 12.8617C1.26786 12.653 1.43451 12.6361 1.55031 12.6537C1.69627 12.6758 1.87595 12.7748 2.02725 12.9616C2.17829 13.1482 2.25196 13.363 2.24993 13.5369C2.2482 13.6847 2.19527 13.8297 2.0149 13.9627L2.90486 15.1701Z" fill="#54DFFF"/>
<path d="M8.69494 19.1778C9.10522 19.2348 9.484 18.9484 9.54097 18.5381C9.59795 18.1278 9.31154 17.749 8.90126 17.692L8.69494 19.1778ZM7.28675 16.2772L7.9704 16.5857L7.97563 16.5741L7.98047 16.5623L7.28675 16.2772ZM9.23701 15.5121L8.90458 16.1843L9.23701 15.5121ZM9.46429 16.7649C9.46512 17.1791 9.80159 17.5142 10.2158 17.5134C10.63 17.5126 10.9651 17.1761 10.9643 16.7619L9.46429 16.7649ZM8.90126 17.692C8.38543 17.6204 8.1605 17.3733 8.05209 17.1476C7.99113 17.0207 7.96137 16.8863 7.95564 16.7688C7.94943 16.6413 7.97302 16.5799 7.9704 16.5857L6.6031 15.9688C6.37789 16.468 6.40754 17.1882 6.69996 17.797C7.02113 18.4657 7.67004 19.0355 8.69494 19.1778L8.90126 17.692ZM7.98047 16.5623C8.05613 16.3782 8.21013 16.2579 8.43281 16.1967C8.54499 16.1659 8.65959 16.1557 8.75756 16.1608C8.86338 16.1663 8.91046 16.1873 8.90458 16.1843L9.56945 14.8398C9.14275 14.6288 8.55081 14.6087 8.03525 14.7504C7.48685 14.9011 6.88833 15.2736 6.59304 15.9922L7.98047 16.5623ZM8.90458 16.1843C9.23814 16.3493 9.36445 16.538 9.4166 16.6457C9.44536 16.705 9.45753 16.7527 9.46243 16.7781C9.46486 16.7906 9.46537 16.797 9.46525 16.7957C9.46518 16.795 9.46496 16.7922 9.46474 16.7872C9.46463 16.7847 9.46452 16.7816 9.46444 16.7779C9.4644 16.776 9.46436 16.774 9.46434 16.7719C9.46432 16.7708 9.46431 16.7697 9.46431 16.7685C9.4643 16.7679 9.4643 16.7673 9.4643 16.7667C9.46429 16.7664 9.46429 16.766 9.46429 16.7658C9.46429 16.7654 9.46429 16.7649 10.2143 16.7634C10.9643 16.7619 10.9643 16.7614 10.9643 16.7609C10.9643 16.7608 10.9643 16.7603 10.9643 16.76C10.9643 16.7593 10.9643 16.7587 10.9643 16.758C10.9643 16.7567 10.9642 16.7553 10.9642 16.7538C10.9642 16.7509 10.9641 16.7478 10.9641 16.7445C10.9639 16.7379 10.9637 16.7304 10.9633 16.7221C10.9626 16.7056 10.9614 16.6858 10.9594 16.6632C10.9554 16.6179 10.9481 16.5604 10.9352 16.4934C10.9093 16.3595 10.8601 16.1848 10.7665 15.9916C10.5739 15.5942 10.2116 15.1573 9.56945 14.8398L8.90458 16.1843Z" fill="#54DFFF"/>
<path d="M16.0074 15.6934C16.4177 15.7504 16.7965 15.464 16.8535 15.0537C16.9104 14.6434 16.624 14.2646 16.2138 14.2077L16.0074 15.6934ZM14.5993 12.7929L15.2829 13.1013L15.2881 13.0897L15.293 13.0779L14.5993 12.7929ZM16.5495 12.0277L16.2171 12.7L16.5495 12.0277ZM16.7768 13.2805C16.7776 13.6947 17.1141 14.0299 17.5283 14.029C17.9425 14.0282 18.2776 13.6917 18.2768 13.2775L16.7768 13.2805ZM16.2138 14.2077C15.6979 14.136 15.473 13.8889 15.3646 13.6632C15.3036 13.5363 15.2739 13.402 15.2681 13.2844C15.2619 13.1569 15.2855 13.0955 15.2829 13.1013L13.9156 12.4844C13.6904 12.9837 13.72 13.7038 14.0125 14.3126C14.3336 14.9813 14.9825 15.5511 16.0074 15.6934L16.2138 14.2077ZM15.293 13.0779C15.3686 12.8938 15.5226 12.7736 15.7453 12.7124C15.8575 12.6815 15.9721 12.6713 16.0701 12.6764C16.1759 12.6819 16.223 12.7029 16.2171 12.7L16.882 11.3554C16.4553 11.1444 15.8633 11.1243 15.3477 11.266C14.7993 11.4167 14.2008 11.7892 13.9055 12.5078L15.293 13.0779ZM16.2171 12.7C16.5506 12.8649 16.677 13.0537 16.7291 13.1613C16.7579 13.2207 16.77 13.2683 16.7749 13.2937C16.7774 13.3063 16.7779 13.3127 16.7777 13.3113C16.7777 13.3106 16.7775 13.3078 16.7772 13.3028C16.7771 13.3003 16.777 13.2972 16.7769 13.2935C16.7769 13.2916 16.7769 13.2896 16.7768 13.2875C16.7768 13.2864 16.7768 13.2853 16.7768 13.2841C16.7768 13.2835 16.7768 13.283 16.7768 13.2824C16.7768 13.2821 16.7768 13.2816 16.7768 13.2815C16.7768 13.281 16.7768 13.2805 17.5268 13.279C18.2768 13.2775 18.2768 13.277 18.2768 13.2766C18.2768 13.2764 18.2768 13.2759 18.2768 13.2756C18.2768 13.275 18.2768 13.2743 18.2768 13.2736C18.2768 13.2723 18.2767 13.2709 18.2767 13.2694C18.2767 13.2665 18.2766 13.2634 18.2766 13.2601C18.2764 13.2535 18.2762 13.246 18.2758 13.2377C18.2751 13.2212 18.2739 13.2015 18.2719 13.1788C18.2679 13.1335 18.2606 13.0761 18.2477 13.009C18.2218 12.8751 18.1726 12.7004 18.079 12.5073C17.8864 12.1098 17.5241 11.6729 16.882 11.3554L16.2171 12.7Z" fill="#54DFFF"/>
<path d="M16.0074 7.19341C16.4177 7.25039 16.7965 6.96398 16.8535 6.5537C16.9104 6.14343 16.624 5.76465 16.2138 5.70767L16.0074 7.19341ZM14.5993 4.29287L15.2829 4.6013L15.2881 4.5897L15.293 4.57793L14.5993 4.29287ZM16.5495 3.52768L16.2171 4.19997L16.5495 3.52768ZM16.7768 4.78053C16.7776 5.19475 17.1141 5.52985 17.5283 5.52902C17.9425 5.52819 18.2776 5.19172 18.2768 4.77751L16.7768 4.78053ZM16.2138 5.70767C15.6979 5.63604 15.473 5.38892 15.3646 5.1632C15.3036 5.03629 15.2739 4.90195 15.2681 4.78441C15.2619 4.65693 15.2855 4.59549 15.2829 4.6013L13.9156 3.98445C13.6904 4.48365 13.72 5.2038 14.0125 5.81263C14.3336 6.4813 14.9825 7.05109 16.0074 7.19341L16.2138 5.70767ZM15.293 4.57793C15.3686 4.3938 15.5226 4.27356 15.7453 4.21235C15.8575 4.18152 15.9721 4.17128 16.0701 4.17639C16.1759 4.1819 16.223 4.20288 16.2171 4.19997L16.882 2.85538C16.4553 2.64438 15.8633 2.62428 15.3477 2.766C14.7993 2.91674 14.2008 3.28918 13.9055 4.00781L15.293 4.57793ZM16.2171 4.19997C16.5506 4.36492 16.677 4.55367 16.7291 4.6613C16.7579 4.72065 16.77 4.76832 16.7749 4.79369C16.7774 4.80626 16.7779 4.81266 16.7777 4.8113C16.7777 4.81058 16.7775 4.80782 16.7772 4.80279C16.7771 4.80028 16.777 4.79719 16.7769 4.79349C16.7769 4.79164 16.7769 4.78964 16.7768 4.78748C16.7768 4.7864 16.7768 4.78528 16.7768 4.78413C16.7768 4.78355 16.7768 4.78296 16.7768 4.78236C16.7768 4.78206 16.7768 4.7816 16.7768 4.78145C16.7768 4.78099 16.7768 4.78053 17.5268 4.77902C18.2768 4.77751 18.2768 4.77704 18.2768 4.77657C18.2768 4.77641 18.2768 4.77594 18.2768 4.77561C18.2768 4.77497 18.2768 4.77431 18.2768 4.77364C18.2768 4.77229 18.2767 4.77089 18.2767 4.76944C18.2767 4.76654 18.2766 4.76343 18.2766 4.76011C18.2764 4.75348 18.2762 4.74601 18.2758 4.73774C18.2751 4.72122 18.2739 4.70147 18.2719 4.67879C18.2679 4.63349 18.2606 4.57605 18.2477 4.509C18.2218 4.37513 18.1726 4.20043 18.079 4.00726C17.8864 3.60983 17.5241 3.17292 16.882 2.85538L16.2171 4.19997Z" fill="#54DFFF"/>
<path d="M6.58774 8.43911C6.71903 8.83197 7.14393 9.04402 7.53678 8.91273C7.92964 8.78145 8.14169 8.35655 8.01041 7.96369L6.58774 8.43911ZM8.30017 5.70087L8.55591 6.40593L8.56787 6.40159L8.57968 6.39685L8.30017 5.70087ZM10.2065 6.557L10.9202 6.32639L10.2065 6.557ZM9.54922 7.84065C9.34974 8.20367 9.48232 8.65966 9.84533 8.85914C10.2083 9.05862 10.6643 8.92605 10.8638 8.56303L9.54922 7.84065ZM8.01041 7.96369C7.82574 7.41108 7.92537 7.06254 8.05419 6.84551C8.20189 6.59669 8.43133 6.45111 8.55591 6.40593L8.04443 4.99582C7.62877 5.14659 7.10729 5.50205 6.76431 6.07988C6.40246 6.68949 6.27166 7.49324 6.58774 8.43911L8.01041 7.96369ZM8.57968 6.39685C8.7668 6.3217 8.96097 6.34854 9.15839 6.46347C9.25806 6.52149 9.34456 6.59542 9.40853 6.66812C9.47762 6.74665 9.49499 6.79421 9.49286 6.78761L10.9202 6.32639C10.7735 5.87238 10.3745 5.43576 9.91303 5.16712C9.42189 4.88121 8.73925 4.71632 8.02067 5.0049L8.57968 6.39685ZM9.49286 6.78761C9.62302 7.19043 9.61585 7.48469 9.59017 7.65767C9.57705 7.74599 9.55843 7.80699 9.5472 7.83845C9.54159 7.8542 9.53783 7.86251 9.53759 7.86305C9.53747 7.86331 9.53824 7.86161 9.5401 7.8579C9.54104 7.85604 9.54224 7.85368 9.54375 7.85081C9.54451 7.84937 9.54534 7.84781 9.54625 7.84612C9.54671 7.84527 9.54718 7.84439 9.54768 7.84348C9.54792 7.84303 9.54818 7.84256 9.54843 7.84209C9.54856 7.84186 9.54876 7.8415 9.54882 7.84138C9.54902 7.84102 9.54922 7.84065 10.2065 8.20184C10.8638 8.56303 10.864 8.56266 10.8642 8.56229C10.8643 8.56217 10.8645 8.56179 10.8646 8.56154C10.8649 8.56103 10.8652 8.56051 10.8655 8.55998C10.8661 8.55892 10.8667 8.55782 10.8673 8.55668C10.8685 8.55439 10.8698 8.55194 10.8712 8.54932C10.8739 8.54408 10.877 8.53817 10.8803 8.5316C10.8869 8.51847 10.8945 8.50267 10.9029 8.48425C10.9197 8.44743 10.9394 8.40006 10.96 8.34253C11.001 8.22742 11.0452 8.07142 11.0739 7.87799C11.1319 7.48749 11.1247 6.95933 10.9202 6.32639L9.49286 6.78761Z" fill="#54DFFF"/>
<path d="M5.44922 9.5V11.5H6.94922V9.5H5.44922ZM7.19922 13.25H10.1992V11.75H7.19922V13.25ZM11.9492 11.5V9.5H10.4492V11.5H11.9492ZM10.1992 7.75H7.19922V9.25H10.1992V7.75ZM11.9492 9.5C11.9492 8.5335 11.1657 7.75 10.1992 7.75V9.25C10.3373 9.25 10.4492 9.36193 10.4492 9.5H11.9492ZM10.1992 13.25C11.1657 13.25 11.9492 12.4665 11.9492 11.5H10.4492C10.4492 11.6381 10.3373 11.75 10.1992 11.75V13.25ZM5.44922 11.5C5.44922 12.4665 6.23272 13.25 7.19922 13.25V11.75C7.06115 11.75 6.94922 11.6381 6.94922 11.5H5.44922ZM6.94922 9.5C6.94922 9.36193 7.06115 9.25 7.19922 9.25V7.75C6.23272 7.75 5.44922 8.5335 5.44922 9.5H6.94922Z" fill="#54DFFF"/>
<path d="M17.0508 6.49922C17.0508 6.08501 16.715 5.74922 16.3008 5.74922C15.8866 5.74922 15.5508 6.08501 15.5508 6.49922H17.0508ZM0.550781 6.69922V11.6992H2.05078V6.69922H0.550781ZM3.10539 4.88458L7.60539 2.88458L6.99618 1.51386L2.49618 3.51386L3.10539 4.88458ZM9.99618 2.88458L14.4962 4.88458L15.1054 3.51386L10.6054 1.51386L9.99618 2.88458ZM15.5508 6.49922V11.6992H17.0508V6.49922H15.5508ZM13.9654 13.5284L9.96537 15.5284L10.6362 16.87L14.6362 14.87L13.9654 13.5284ZM7.13619 15.5284L3.13619 13.5284L2.46537 14.87L6.46537 16.87L7.13619 15.5284Z" fill="#54DFFF"/>
</g>
<defs>
<clipPath id="clip0_21_17">
<rect width="17.6849" height="18.5962" fill="white"/>
</clipPath>
</defs>
</svg>
