<svg width="24" height="24" viewBox="0 0 24 24" fill="none" xmlns="http://www.w3.org/2000/svg">
<path d="M3.75 18C3.53333 18 3.35417 17.9292 3.2125 17.7875C3.07083 17.6458 3 17.4667 3 17.25C3 17.0333 3.07083 16.8542 3.2125 16.7125C3.35417 16.5708 3.53333 16.5 3.75 16.5H15.25C15.4667 16.5 15.6458 16.5708 15.7875 16.7125C15.9292 16.8542 16 17.0333 16 17.25C16 17.4667 15.9292 17.6458 15.7875 17.7875C15.6458 17.9292 15.4667 18 15.25 18H3.75ZM3.75 12.7C3.53333 12.7 3.35417 12.6292 3.2125 12.4875C3.07083 12.3458 3 12.1667 3 11.95C3 11.7333 3.07083 11.5542 3.2125 11.4125C3.35417 11.2708 3.53333 11.2 3.75 11.2H12.25C12.4667 11.2 12.6458 11.2708 12.7875 11.4125C12.9292 11.5542 13 11.7333 13 11.95C13 12.1667 12.9292 12.3458 12.7875 12.4875C12.6458 12.6292 12.4667 12.7 12.25 12.7H3.75ZM3.75 7.5C3.53333 7.5 3.35417 7.42917 3.2125 7.2875C3.07083 7.14583 3 6.96667 3 6.75C3 6.53333 3.07083 6.35417 3.2125 6.2125C3.35417 6.07083 3.53333 6 3.75 6H15.25C15.4667 6 15.6458 6.07083 15.7875 6.2125C15.9292 6.35417 16 6.53333 16 6.75C16 6.96667 15.9292 7.14583 15.7875 7.2875C15.6458 7.42917 15.4667 7.5 15.25 7.5H3.75Z" fill="#54DFFF"/>
<path d="M19.8954 11.5L17.1849 14.3409C17.0548 14.4773 16.9933 14.6364 17.0006 14.8182C17.0078 15 17.0765 15.1591 17.2066 15.2955C17.3367 15.4318 17.4921 15.5 17.6728 15.5C17.8535 15.5 18.0089 15.4318 18.139 15.2955L21.3048 11.9773C21.4349 11.8409 21.5 11.6818 21.5 11.5C21.5 11.3182 21.4349 11.1591 21.3048 11.0227L18.139 7.70455C18.0089 7.56818 17.8535 7.5 17.6728 7.5C17.4921 7.5 17.3367 7.56818 17.2066 7.70455C17.0765 7.84091 17.0114 8.00379 17.0114 8.19318C17.0114 8.38258 17.0765 8.54545 17.2066 8.68182L19.8954 11.5Z" fill="#54DFFF"/>
</svg>
