<svg width="25" height="24" viewBox="0 0 25 24" fill="none" xmlns="http://www.w3.org/2000/svg">
<mask id="mask0_43_5" style="mask-type:alpha" maskUnits="userSpaceOnUse" x="0" y="3" width="25" height="21">
<rect x="0.684937" y="3.88153" width="24" height="20.1185" fill="#D9D9D9"/>
</mask>
<g mask="url(#mask0_43_5)">
<path d="M7.68494 22.3234C7.13494 22.3234 6.66427 22.1594 6.27294 21.8314C5.88094 21.5028 5.68494 21.108 5.68494 20.6469C5.68494 20.1859 5.88094 19.791 6.27294 19.4624C6.66427 19.1344 7.13494 18.9704 7.68494 18.9704C8.23494 18.9704 8.7056 19.1344 9.09694 19.4624C9.48894 19.791 9.68494 20.1859 9.68494 20.6469C9.68494 21.108 9.48894 21.5028 9.09694 21.8314C8.7056 22.1594 8.23494 22.3234 7.68494 22.3234ZM17.6849 22.3234C17.1349 22.3234 16.6643 22.1594 16.2729 21.8314C15.8809 21.5028 15.6849 21.108 15.6849 20.6469C15.6849 20.1859 15.8809 19.791 16.2729 19.4624C16.6643 19.1344 17.1349 18.9704 17.6849 18.9704C18.2349 18.9704 18.7059 19.1344 19.0979 19.4624C19.4893 19.791 19.6849 20.1859 19.6849 20.6469C19.6849 21.108 19.4893 21.5028 19.0979 21.8314C18.7059 22.1594 18.2349 22.3234 17.6849 22.3234ZM7.68494 18.1321C6.93494 18.1321 6.35994 17.856 5.95994 17.3039C5.55994 16.7523 5.5516 16.2041 5.93494 15.6592L7.28494 13.6054L3.68494 7.23458H1.68494V5.55804H4.95994L9.20994 13.1025H16.2349L20.1099 7.23458L21.8599 8.03094L17.9849 13.8988C17.8016 14.1783 17.5599 14.3948 17.2599 14.5485C16.9599 14.7022 16.6183 14.779 16.2349 14.779H8.78494L7.68494 16.4556H19.6849V18.1321H7.68494Z" fill="#54DFFF"/>
</g>
<path d="M10.9141 7.09276L9.54706 6.24338L10.3533 10.3206L14.3319 9.21623L12.9306 8.34561C14.0635 6.49505 15.4034 5.53941 17.1661 5.35734C15.2307 4.66571 12.842 4.71432 10.9141 7.09276Z" fill="#54DFFF"/>
<rect width="3.00456" height="1.97214" rx="0.2" transform="matrix(0.522134 -0.852863 0.878258 0.478187 15.2086 10.2533)" fill="#54DFFF"/>
<rect x="9.68494" y="10.7972" width="3" height="2" rx="0.2" fill="#54DFFF"/>
<rect x="13.1849" y="10.7972" width="3" height="2" rx="0.2" fill="#54DFFF"/>
</svg>
