<svg width="25" height="24" viewBox="0 0 25 24" fill="none" xmlns="http://www.w3.org/2000/svg">
<g clip-path="url(#clip0_24_40)">
<mask id="mask0_24_40" style="mask-type:alpha" maskUnits="userSpaceOnUse" x="0" y="2" width="25" height="22">
<rect x="0.684937" y="2.66669" width="24" height="21.3333" fill="#D9D9D9"/>
</mask>
<g mask="url(#mask0_24_40)">
<path d="M7.68494 22.2222C7.13494 22.2222 6.66427 22.0483 6.27294 21.7005C5.88094 21.352 5.68494 20.9333 5.68494 20.4445C5.68494 19.9556 5.88094 19.5369 6.27294 19.1885C6.66427 18.8406 7.13494 18.6667 7.68494 18.6667C8.23494 18.6667 8.7056 18.8406 9.09694 19.1885C9.48894 19.5369 9.68494 19.9556 9.68494 20.4445C9.68494 20.9333 9.48894 21.352 9.09694 21.7005C8.7056 22.0483 8.23494 22.2222 7.68494 22.2222ZM17.6849 22.2222C17.1349 22.2222 16.6643 22.0483 16.2729 21.7005C15.8809 21.352 15.6849 20.9333 15.6849 20.4445C15.6849 19.9556 15.8809 19.5369 16.2729 19.1885C16.6643 18.8406 17.1349 18.6667 17.6849 18.6667C18.2349 18.6667 18.7059 18.8406 19.0979 19.1885C19.4893 19.5369 19.6849 19.9556 19.6849 20.4445C19.6849 20.9333 19.4893 21.352 19.0979 21.7005C18.7059 22.0483 18.2349 22.2222 17.6849 22.2222ZM7.68494 17.7778C6.93494 17.7778 6.35994 17.4851 5.95994 16.8996C5.55994 16.3147 5.5516 15.7333 5.93494 15.1556L7.28494 12.9778L3.68494 6.22224H1.68494V4.44446H4.95994L9.20994 12.4445H16.2349L20.1099 6.22224L21.8599 7.06668L17.9849 13.2889C17.8016 13.5852 17.5599 13.8148 17.2599 13.9778C16.9599 14.1408 16.6183 14.2222 16.2349 14.2222H8.78494L7.68494 16H19.6849V17.7778H7.68494Z" fill="#54DFFF"/>
</g>
<path d="M11.8652 4.57673L12.3377 3.00929L8.42496 5.01733L10.684 8.49536L11.1683 6.88872C13.3725 7.41372 14.7265 8.40819 15.4152 10.0422C15.565 7.9779 14.833 5.70359 11.8652 4.57673Z" fill="#54DFFF"/>
</g>
<defs>
<clipPath id="clip0_24_40">
<rect width="24" height="24" fill="white" transform="translate(0.684937)"/>
</clipPath>
</defs>
</svg>
